<?xml version="1.0" encoding="UTF-8" standalone="no"?>
<!DOCTYPE svg PUBLIC "-//W3C//DTD SVG 1.1//EN"
 "http://www.w3.org/Graphics/SVG/1.1/DTD/svg11.dtd">
<!-- Generated by graphviz version 2.43.0 (0)
 -->
<!-- Title: G Pages: 1 -->
<svg width="700pt" height="385pt"
 viewBox="0.00 0.00 700.00 385.00" xmlns="http://www.w3.org/2000/svg" xmlns:xlink="http://www.w3.org/1999/xlink">
<g id="graph0" class="graph" transform="scale(1 1) rotate(0) translate(4 381)">
<title>G</title>
<polygon fill="white" stroke="transparent" points="-4,4 -4,-381 696,-381 696,4 -4,4"/>
<text text-anchor="middle" x="346" y="-7.8" font-family="Times,serif" font-size="14.00">PLY System Architecture</text>
<g id="clust1" class="cluster">
<title>cluster_django</title>
<polygon fill="none" stroke="black" points="8,-114 8,-261 340,-261 340,-114 8,-114"/>
<text text-anchor="middle" x="174" y="-245.8" font-family="Times,serif" font-size="14.00">Django Workers</text>
</g>
<g id="clust2" class="cluster">
<title>cluster_static</title>
<polygon fill="none" stroke="black" points="348,-186 348,-261 684,-261 684,-186 348,-186"/>
<text text-anchor="middle" x="516" y="-245.8" font-family="Times,serif" font-size="14.00">Static Files</text>
</g>
<g id="clust3" class="cluster">
<title>cluster_storage</title>
<polygon fill="none" stroke="black" points="56,-31 56,-106 538,-106 538,-31 56,-31"/>
<text text-anchor="middle" x="297" y="-90.8" font-family="Times,serif" font-size="14.00">Persistent Storage</text>
</g>
<!-- u0 -->
<g id="node1" class="node">
<title>u0</title>
<ellipse fill="#08306b" stroke="#08306b" cx="199" cy="-212" rx="132.68" ry="18"/>
<text text-anchor="middle" x="199" y="-208.3" font-family="Times,serif" font-size="14.00">UWSGI:Frontend Workers</text>
</g>
<!-- c1 -->
<g id="node2" class="node">
<title>c1</title>
<ellipse fill="#deebf7" stroke="#deebf7" cx="174" cy="-140" rx="157.87" ry="18"/>
<text text-anchor="middle" x="174" y="-136.3" font-family="Times,serif" font-size="14.00">Celery:Backend Queue Workers</text>
</g>
<!-- u0&#45;&gt;c1 -->
<g id="edge1" class="edge">
<title>u0&#45;&gt;c1</title>
<path fill="none" stroke="black" d="M192.82,-193.7C190,-185.81 186.61,-176.3 183.48,-167.55"/>
<polygon fill="black" stroke="black" points="186.77,-166.34 180.11,-158.1 180.18,-168.7 186.77,-166.34"/>
</g>
<!-- db -->
<g id="node5" class="node">
<title>db</title>
<ellipse fill="#6baed6" stroke="#6baed6" cx="176" cy="-57" rx="112.38" ry="18"/>
<text text-anchor="middle" x="176" y="-53.3" font-family="Times,serif" font-size="14.00">PostgreSQL Database</text>
</g>
<!-- u0&#45;&gt;db -->
<g id="edge3" class="edge">
<title>u0&#45;&gt;db</title>
<path fill="none" stroke="black" d="M282.54,-197.97C305.21,-190.19 327.27,-177.78 341,-158 352.15,-141.94 353.53,-129.01 341,-114 328.26,-98.74 316.11,-111.47 297,-106 271.14,-98.6 243.18,-87.71 220.66,-78.17"/>
<polygon fill="black" stroke="black" points="221.93,-74.91 211.36,-74.18 219.17,-81.34 221.93,-74.91"/>
</g>
<!-- c1&#45;&gt;db -->
<g id="edge4" class="edge">
<title>c1&#45;&gt;db</title>
<path fill="none" stroke="black" d="M174.42,-121.82C174.69,-111.19 175.03,-97.31 175.33,-85.2"/>
<polygon fill="black" stroke="black" points="178.83,-85.24 175.58,-75.15 171.83,-85.06 178.83,-85.24"/>
</g>
<!-- tf -->
<g id="node3" class="node">
<title>tf</title>
<ellipse fill="#c6dbef" stroke="#c6dbef" cx="587" cy="-212" rx="89.08" ry="18"/>
<text text-anchor="middle" x="587" y="-208.3" font-family="Times,serif" font-size="14.00">Local Temp Files</text>
</g>
<!-- cdp -->
<g id="node4" class="node">
<title>cdp</title>
<ellipse fill="#9ecae1" stroke="#9ecae1" cx="418" cy="-212" rx="62.29" ry="18"/>
<text text-anchor="middle" x="418" y="-208.3" font-family="Times,serif" font-size="14.00">CDN Proxy</text>
</g>
<!-- cdn -->
<g id="node6" class="node">
<title>cdn</title>
<ellipse fill="#4292c6" stroke="#4292c6" cx="418" cy="-57" rx="111.58" ry="18"/>
<text text-anchor="middle" x="418" y="-53.3" font-family="Times,serif" font-size="14.00">CDN Storage (S3/DO)</text>
</g>
<!-- cdp&#45;&gt;cdn -->
<g id="edge2" class="edge">
<title>cdp&#45;&gt;cdn</title>
<path fill="none" stroke="black" d="M418,-193.75C418,-167.46 418,-117.13 418,-85.69"/>
<polygon fill="black" stroke="black" points="421.5,-85.43 418,-75.43 414.5,-85.43 421.5,-85.43"/>
</g>
<!-- nxf -->
<g id="node7" class="node">
<title>nxf</title>
<path fill="#2171b5" stroke="#2171b5" d="M406.08,-303.59C406.08,-303.59 277.26,-288.41 277.26,-288.41 271.3,-287.7 271.3,-286.3 277.26,-285.59 277.26,-285.59 406.08,-270.41 406.08,-270.41 412.04,-269.7 423.96,-269.7 429.92,-270.41 429.92,-270.41 558.74,-285.59 558.74,-285.59 564.7,-286.3 564.7,-287.7 558.74,-288.41 558.74,-288.41 429.92,-303.59 429.92,-303.59 423.96,-304.3 412.04,-304.3 406.08,-303.59"/>
<text text-anchor="middle" x="418" y="-283.3" font-family="Times,serif" font-size="14.00">NGINX Proxy/Router</text>
</g>
<!-- nxf&#45;&gt;u0 -->
<g id="edge5" class="edge">
<title>nxf&#45;&gt;u0</title>
<path fill="none" stroke="black" d="M379.85,-273.28C345.73,-261.91 295.25,-245.08 256.28,-232.09"/>
<polygon fill="black" stroke="black" points="257.23,-228.72 246.64,-228.88 255.02,-235.36 257.23,-228.72"/>
</g>
<!-- nxf&#45;&gt;tf -->
<g id="edge7" class="edge">
<title>nxf&#45;&gt;tf</title>
<path fill="none" stroke="black" d="M456.26,-273.45C466.96,-269.69 478.51,-265.4 489,-261 508.46,-252.84 529.54,-242.7 547.14,-233.84"/>
<polygon fill="black" stroke="black" points="549.2,-236.72 556.53,-229.07 546.03,-230.48 549.2,-236.72"/>
</g>
<!-- nxf&#45;&gt;cdp -->
<g id="edge6" class="edge">
<title>nxf&#45;&gt;cdp</title>
<path fill="none" stroke="black" d="M418,-268.7C418,-260.25 418,-249.87 418,-240.37"/>
<polygon fill="black" stroke="black" points="421.5,-240.18 418,-230.18 414.5,-240.18 421.5,-240.18"/>
</g>
<!-- int -->
<g id="node8" class="node">
<title>int</title>
<path fill="#08519c" stroke="#08519c" d="M406.12,-375.29C406.12,-375.29 304.87,-360.71 304.87,-360.71 298.93,-359.86 298.93,-358.14 304.87,-357.29 304.87,-357.29 406.12,-342.71 406.12,-342.71 412.06,-341.86 423.94,-341.86 429.88,-342.71 429.88,-342.71 531.13,-357.29 531.13,-357.29 537.07,-358.14 537.07,-359.86 531.13,-360.71 531.13,-360.71 429.88,-375.29 429.88,-375.29 423.94,-376.14 412.06,-376.14 406.12,-375.29"/>
<text text-anchor="middle" x="418" y="-355.3" font-family="Times,serif" font-size="14.00">The Internet(tm)</text>
</g>
<!-- int&#45;&gt;nxf -->
<g id="edge8" class="edge">
<title>int&#45;&gt;nxf</title>
<path fill="none" stroke="black" d="M418,-340.7C418,-332.98 418,-323.71 418,-315.11"/>
<polygon fill="black" stroke="black" points="421.5,-315.1 418,-305.1 414.5,-315.1 421.5,-315.1"/>
</g>
</g>
</svg>
